<svg width="27" height="27" viewBox="0 0 27 27" fill="none" xmlns="http://www.w3.org/2000/svg">
<path d="M23.4758 8.25H3.50101C3.20553 8.25 2.91295 8.3082 2.63997 8.42127C2.36699 8.53434 2.11895 8.70008 1.91002 8.90901C1.70108 9.11794 1.53535 9.36598 1.42228 9.63896C1.30921 9.91194 1.25101 10.2045 1.25101 10.5C1.25101 10.7955 1.30921 11.0881 1.42228 11.361C1.53535 11.634 1.70108 11.8821 1.91002 12.091C2.11895 12.2999 2.36699 12.4657 2.63997 12.5787C2.91295 12.6918 3.20553 12.75 3.50101 12.75C3.63751 12.75 3.76876 12.7328 3.89851 12.7103L3.88651 12.75L4.36426 23.253C4.43851 24.9015 5.85001 26.25 7.50001 26.25H19.5C21.15 26.25 22.5615 24.9015 22.6365 23.253L23.1135 12.75L23.1023 12.7125C23.2245 12.7328 23.3475 12.75 23.4758 12.75C23.7712 12.75 24.0638 12.6918 24.3368 12.5787C24.6098 12.4657 24.8578 12.2999 25.0667 12.091C25.2757 11.8821 25.4414 11.634 25.5545 11.361C25.6676 11.0881 25.7258 10.7955 25.7258 10.5C25.7258 10.2045 25.6676 9.91194 25.5545 9.63896C25.4414 9.36598 25.2757 9.11794 25.0667 8.90901C24.8578 8.70008 24.6098 8.53434 24.3368 8.42127C24.0638 8.3082 23.7712 8.25 23.4758 8.25Z" fill="#E1E8ED"/>
<path d="M21.501 12.75V25.4917C22.1482 24.9412 22.584 24.1448 22.62 23.2523L23.13 12.75H21.501ZM17.001 12.75H19.251V26.25H17.001V12.75ZM12.501 26.25V12.75H14.751V26.25H12.501ZM8.001 12.75H10.251V26.25H8.001V12.75ZM3.87 12.75L4.38 23.2523C4.4205 24.2588 4.962 25.1483 5.751 25.6928V12.75H3.87Z" fill="#DA2F47"/>
<path opacity="0.6" d="M3.87 12.75L3.94275 14.25H23.0565L23.13 12.75H3.87Z" fill="#99AAB5"/>
<path d="M23.1967 8.3025C23.229 8.1645 23.25 8.02275 23.25 7.875C23.25 7.3695 23.0475 6.912 22.722 6.57525C23.0385 6.37575 23.25 6.02625 23.25 5.625C23.2497 5.44124 23.2044 5.26035 23.1181 5.09814C23.0317 4.93593 22.907 4.79734 22.7547 4.69449C22.6024 4.59163 22.4272 4.52765 22.2445 4.50813C22.0618 4.48861 21.8771 4.51414 21.7065 4.5825C21.6554 4.39352 21.5556 4.22124 21.4172 4.0828C21.2788 3.94437 21.1065 3.84463 20.9175 3.7935C20.9859 3.62293 21.0114 3.43821 20.9919 3.25549C20.9723 3.07277 20.9084 2.89761 20.8055 2.74533C20.7027 2.59305 20.5641 2.46828 20.4019 2.38193C20.2397 2.29559 20.0588 2.25029 19.875 2.25C19.7317 2.25 19.596 2.27925 19.47 2.328C19.432 2.07917 19.3441 1.84058 19.2117 1.62649C19.0793 1.41241 18.9051 1.22724 18.6995 1.08206C18.4938 0.936885 18.261 0.834689 18.015 0.781589C17.7689 0.72849 17.5147 0.725579 17.2675 0.773031C17.0203 0.820483 16.7852 0.917322 16.5763 1.05775C16.3674 1.19818 16.189 1.37932 16.0517 1.59031C15.9144 1.80131 15.8211 2.03783 15.7774 2.28572C15.7337 2.53361 15.7404 2.78778 15.7972 3.033C15.3172 3.11775 14.9047 3.38475 14.625 3.75975C14.4518 3.52465 14.2258 3.33346 13.9653 3.20151C13.7048 3.06956 13.417 3.00054 13.125 3C12.6277 3 12.1508 3.19754 11.7992 3.54918C11.4475 3.90081 11.25 4.37772 11.25 4.875L11.2507 4.884C11.0201 4.70738 10.7511 4.58764 10.4655 4.5345C10.3866 4.10387 10.1592 3.71453 9.82294 3.43418C9.48668 3.15382 9.0628 3.00019 8.625 3C8.1861 3.00031 7.76126 3.15481 7.42471 3.43653C7.08816 3.71825 6.86129 4.10926 6.78375 4.54125C6.64879 4.51683 6.51212 4.50304 6.375 4.5C5.6788 4.5 5.01112 4.77656 4.51884 5.26885C4.02656 5.76113 3.75 6.42881 3.75 7.125C3.75 7.53375 3.85125 7.9155 4.01775 8.2605C3.72486 8.2803 3.45142 8.41418 3.25616 8.63338C3.06089 8.85258 2.95938 9.13961 2.97342 9.43283C2.98746 9.72605 3.11594 10.0021 3.33126 10.2016C3.54657 10.4011 3.83156 10.5083 4.125 10.5H22.875C23.1455 10.5018 23.4075 10.4057 23.6127 10.2295C23.818 10.0533 23.9526 9.80886 23.9918 9.54121C24.031 9.27357 23.9721 9.00078 23.826 8.77314C23.6799 8.54549 23.4564 8.37834 23.1967 8.3025V8.3025Z" fill="#FFD983"/>
<path d="M21 6.75C21.4142 6.75 21.75 6.41421 21.75 6C21.75 5.58579 21.4142 5.25 21 5.25C20.5858 5.25 20.25 5.58579 20.25 6C20.25 6.41421 20.5858 6.75 21 6.75Z" fill="#FFAC33"/>
<path d="M18.375 5.25C18.9963 5.25 19.5 4.74632 19.5 4.125C19.5 3.50368 18.9963 3 18.375 3C17.7537 3 17.25 3.50368 17.25 4.125C17.25 4.74632 17.7537 5.25 18.375 5.25Z" fill="#FFAC33"/>
<path d="M9 6C9.41421 6 9.75 5.66421 9.75 5.25C9.75 4.83579 9.41421 4.5 9 4.5C8.58579 4.5 8.25 4.83579 8.25 5.25C8.25 5.66421 8.58579 6 9 6Z" fill="#FFAC33"/>
<path d="M23.25 9.375C23.25 9.10903 23.1556 8.85169 22.9837 8.64882C22.8117 8.44595 22.5732 8.31072 22.3108 8.26723C22.0485 8.22374 21.7791 8.27481 21.5509 8.41134C21.3227 8.54787 21.1503 8.761 21.0645 9.01275C21.0428 9.01125 21.0232 9 21 9C20.8011 9 20.6103 9.07902 20.4697 9.21967C20.329 9.36032 20.25 9.55109 20.25 9.75H23.181C23.223 9.63225 23.25 9.507 23.25 9.375ZM7.125 9C7.2735 9 7.41375 9.03 7.5435 9.0825C7.61345 8.81874 7.77712 8.58952 8.00388 8.43772C8.23064 8.28593 8.50495 8.22198 8.77546 8.25784C9.04597 8.2937 9.29413 8.42691 9.47351 8.63254C9.65289 8.83817 9.75119 9.10213 9.75 9.375C9.75 9.507 9.723 9.63225 9.681 9.75H12.819C12.7746 9.6299 12.7512 9.50304 12.75 9.375C12.75 9.07663 12.8685 8.79048 13.0795 8.5795C13.2905 8.36853 13.5766 8.25 13.875 8.25C14.0528 8.25 14.2193 8.295 14.3685 8.3685C14.2915 8.21531 14.251 8.04643 14.25 7.875C14.2494 7.70882 14.2855 7.54456 14.3559 7.39403C14.4263 7.2435 14.5292 7.11044 14.6572 7.00441C14.7851 6.89838 14.935 6.82201 15.096 6.7808C15.257 6.73958 15.4251 6.73455 15.5883 6.76605C15.7514 6.79756 15.9056 6.86482 16.0397 6.963C16.1737 7.06118 16.2844 7.18785 16.3637 7.3339C16.443 7.47994 16.4889 7.64174 16.4982 7.80766C16.5075 7.97358 16.48 8.1395 16.4175 8.2935C16.896 8.4225 17.25 8.85525 17.25 9.375C17.25 9.507 17.223 9.63225 17.181 9.75H19.407L18.9825 9.375C19.2975 9.09975 19.5 8.70075 19.5 8.25C19.5 7.85217 19.342 7.47064 19.0607 7.18934C18.7794 6.90803 18.3978 6.75 18 6.75C17.7271 6.75113 17.4599 6.82742 17.2275 6.9705C17.2387 6.89775 17.25 6.82575 17.25 6.75C17.2507 6.40744 17.1339 6.07502 16.9191 5.80814C16.7044 5.54126 16.4046 5.35606 16.0698 5.28343C15.7351 5.21079 15.3855 5.2551 15.0795 5.40897C14.7734 5.56284 14.5294 5.81698 14.388 6.129C14.2298 6.04551 14.0539 6.00127 13.875 6C13.6912 6.00029 13.5103 6.04558 13.3481 6.13193C13.1859 6.21828 13.0473 6.34305 12.9445 6.49533C12.8416 6.64761 12.7776 6.82276 12.7581 7.00549C12.7386 7.18821 12.7641 7.37293 12.8325 7.5435C12.354 7.67325 12 8.106 12 8.625C12 8.7735 12.03 8.91375 12.0825 9.0435C11.9125 9.0893 11.7558 9.17462 11.625 9.2925C11.4201 9.10502 11.1527 9.00072 10.875 9C10.6972 9 10.5307 9.045 10.3807 9.11925C10.455 8.96925 10.5 8.80275 10.5 8.625C10.4997 8.44124 10.4544 8.26035 10.3681 8.09814C10.2817 7.93593 10.157 7.79734 10.0047 7.69448C9.85239 7.59163 9.67723 7.52765 9.49451 7.50813C9.31179 7.48861 9.12707 7.51414 8.9565 7.5825C8.91683 7.43464 8.84731 7.29646 8.75224 7.17647C8.65716 7.05647 8.53853 6.95721 8.40366 6.88478C8.26878 6.81235 8.12051 6.76829 7.96797 6.75531C7.81543 6.74233 7.66185 6.7607 7.51667 6.8093C7.3715 6.85789 7.2378 6.93569 7.12382 7.03789C7.00983 7.14009 6.91797 7.26453 6.85388 7.40356C6.78979 7.54259 6.75483 7.69327 6.75116 7.84632C6.74748 7.99937 6.77516 8.15155 6.8325 8.2935C6.66252 8.3393 6.50576 8.42462 6.375 8.5425C6.17014 8.35502 5.9027 8.25072 5.625 8.25C5.32663 8.25 5.04048 8.36853 4.8295 8.5795C4.61853 8.79048 4.5 9.07663 4.5 9.375C4.5 9.507 4.527 9.63225 4.569 9.75H6.069C6.22425 9.31425 6.636 9 7.125 9V9Z" fill="#FFAC33"/>
<path d="M3 9.75V10.5C3 10.6989 3.07902 10.8897 3.21967 11.0303C3.36032 11.171 3.55109 11.25 3.75 11.25H23.25C23.4489 11.25 23.6397 11.171 23.7803 11.0303C23.921 10.8897 24 10.6989 24 10.5V9.75H3Z" fill="white"/>
</svg>
